<?xml version="1.0" encoding="UTF-8" standalone="no"?>
<!DOCTYPE svg PUBLIC "-//W3C//DTD SVG 1.0//EN" "http://www.w3.org/TR/2001/PR-SVG-20010719/DTD/svg10.dtd">
<svg width="19cm" height="28cm" viewBox="352 73 374 554" xmlns="http://www.w3.org/2000/svg" xmlns:xlink="http://www.w3.org/1999/xlink">
  <g>
    <path style="fill: #ffffff" d="M 403.187 74.8556 L 470.678,74.8556 C 479.997,74.8556 487.551,82.2159 487.551,91.2952 C 487.551,100.375 479.997,107.735 470.678,107.735 L 403.187,107.735 C 393.868,107.735 386.314,100.375 386.314,91.2952 C 386.314,82.2159 393.868,74.8556 403.187,74.8556z"/>
    <path style="fill: none; fill-opacity:0; stroke-width: 2; stroke: #000000" d="M 403.187 74.8556 L 470.678,74.8556 C 479.997,74.8556 487.551,82.2159 487.551,91.2952 C 487.551,100.375 479.997,107.735 470.678,107.735 L 403.187,107.735 C 393.868,107.735 386.314,100.375 386.314,91.2952 C 386.314,82.2159 393.868,74.8556 403.187,74.8556"/>
    <text font-size="12.8" style="fill: #000000;text-anchor:middle;font-family:sans-serif;font-style:normal;font-weight:normal" x="436.933" y="95.2952">
      <tspan x="436.933" y="95.2952">mulai</tspan>
    </text>
  </g>
  <text font-size="12.8" style="fill: #000000;text-anchor:start;font-family:sans-serif;font-style:normal;font-weight:normal" x="437.542" y="147.545">
    <tspan x="437.542" y="147.545"></tspan>
  </text>
  <text font-size="12.8" style="fill: #000000;text-anchor:start;font-family:sans-serif;font-style:normal;font-weight:normal" x="430.534" y="98.2974">
    <tspan x="430.534" y="98.2974"></tspan>
  </text>
  <g>
    <polygon style="fill: #ffffff" points="382.856,136.266 520.277,136.266 493.895,208.749 356.474,208.749 "/>
    <polygon style="fill: none; fill-opacity:0; stroke-width: 2; stroke: #000000" points="382.856,136.266 520.277,136.266 493.895,208.749 356.474,208.749 "/>
    <text font-size="12.8" style="fill: #000000;text-anchor:middle;font-family:sans-serif;font-style:normal;font-weight:normal" x="438.375" y="160.407">
      <tspan x="438.375" y="160.407">input:</tspan>
      <tspan x="438.375" y="176.407">Jarak (S meter)</tspan>
      <tspan x="438.375" y="192.407">waktu (t detik) </tspan>
    </text>
  </g>
  <g>
    <line style="fill: none; fill-opacity:0; stroke-width: 2; stroke: #000000" x1="436.932" y1="107.735" x2="437.446" y2="130.811"/>
    <polyline style="fill: none; fill-opacity:0; stroke-width: 2; stroke: #000000" points="432.274,123.161 437.496,133.047 442.272,122.938 "/>
  </g>
  <g>
    <rect style="fill: #ffffff" x="353.22" y="327.576" width="173.75" height="60.664"/>
    <rect style="fill: none; fill-opacity:0; stroke-width: 2; stroke: #000000" x="353.22" y="327.576" width="173.75" height="60.664"/>
    <text font-size="12.8" style="fill: #000000;text-anchor:middle;font-family:sans-serif;font-style:normal;font-weight:normal" x="440.095" y="353.808">
      <tspan x="440.095" y="353.808">Menghitung kecepatan:</tspan>
      <tspan x="440.095" y="369.808">v = S/t</tspan>
    </text>
  </g>
  <g>
    <line style="fill: none; fill-opacity:0; stroke-width: 2; stroke: #000000" x1="440.43" y1="302.618" x2="440.154" y2="323.104"/>
    <polyline style="fill: none; fill-opacity:0; stroke-width: 2; stroke: #000000" points="435.259,315.274 440.124,325.34 445.258,315.408 "/>
  </g>
  <g>
    <polygon style="fill: #ffffff" points="387.203,505.046 512.889,505.046 492.416,561.296 366.73,561.296 "/>
    <polygon style="fill: none; fill-opacity:0; stroke-width: 2; stroke: #000000" points="387.203,505.046 512.889,505.046 492.416,561.296 366.73,561.296 "/>
    <text font-size="12.8" style="fill: #000000;text-anchor:middle;font-family:sans-serif;font-style:normal;font-weight:normal" x="439.809" y="529.071">
      <tspan x="439.809" y="529.071">Output:</tspan>
      <tspan x="439.809" y="545.071">"kecepatan"</tspan>
    </text>
  </g>
  <g>
    <path style="fill: #ffffff" d="M 406.401 593.218 L 473.892,593.218 C 483.211,593.218 490.765,600.578 490.765,609.658 C 490.765,618.737 483.211,626.097 473.892,626.097 L 406.401,626.097 C 397.082,626.097 389.528,618.737 389.528,609.658 C 389.528,600.578 397.082,593.218 406.401,593.218z"/>
    <path style="fill: none; fill-opacity:0; stroke-width: 2; stroke: #000000" d="M 406.401 593.218 L 473.892,593.218 C 483.211,593.218 490.765,600.578 490.765,609.658 C 490.765,618.737 483.211,626.097 473.892,626.097 L 406.401,626.097 C 397.082,626.097 389.528,618.737 389.528,609.658 C 389.528,600.578 397.082,593.218 406.401,593.218"/>
    <text font-size="12.8" style="fill: #000000;text-anchor:middle;font-family:sans-serif;font-style:normal;font-weight:normal" x="440.147" y="613.658">
      <tspan x="440.147" y="613.658">selesai</tspan>
    </text>
  </g>
  <g>
    <line style="fill: none; fill-opacity:0; stroke-width: 2; stroke: #000000" x1="439.937" y1="562.227" x2="440.05" y2="587.763"/>
    <polyline style="fill: none; fill-opacity:0; stroke-width: 2; stroke: #000000" points="435.016,580.021 440.06,589.999 445.016,579.977 "/>
  </g>
  <g>
    <polygon style="fill: #ffffff" points="440.431,237.404 486.614,270.011 440.431,302.619 394.248,270.011 "/>
    <polygon style="fill: none; fill-opacity:0; stroke-width: 2; stroke: #000000" points="440.431,237.404 486.614,270.011 440.431,302.619 394.248,270.011 "/>
    <text font-size="12.8" style="fill: #000000;text-anchor:middle;font-family:sans-serif;font-style:normal;font-weight:normal" x="440.431" y="273.911">
      <tspan x="440.431" y="273.911">t=0?</tspan>
    </text>
  </g>
  <text font-size="12.8" style="fill: #000000;text-anchor:start;font-family:sans-serif;font-style:normal;font-weight:normal" x="452.08" y="318.824">
    <tspan x="452.08" y="318.824">No</tspan>
  </text>
  <g>
    <ellipse style="fill: #ffffff" cx="439.988" cy="445.101" rx="19.0264" ry="17.3826"/>
    <ellipse style="fill: none; fill-opacity:0; stroke-width: 2; stroke: #000000" cx="439.988" cy="445.101" rx="19.0264" ry="17.3826"/>
    <text font-size="12.8" style="fill: #000000;text-anchor:middle;font-family:sans-serif;font-style:normal;font-weight:normal" x="439.988" y="449.001">
      <tspan x="439.988" y="449.001"></tspan>
    </text>
  </g>
  <g>
    <rect style="fill: #ffffff" x="550.624" y="239.746" width="173.75" height="60.664"/>
    <rect style="fill: none; fill-opacity:0; stroke-width: 2; stroke: #000000" x="550.624" y="239.746" width="173.75" height="60.664"/>
    <text font-size="12.8" style="fill: #000000;text-anchor:middle;font-family:sans-serif;font-style:normal;font-weight:normal" x="637.499" y="265.978">
      <tspan x="637.499" y="265.978">Menghitung kecepatan:</tspan>
      <tspan x="637.499" y="281.978">v = 0</tspan>
    </text>
  </g>
  <g>
    <line style="fill: none; fill-opacity:0; stroke-width: 2; stroke: #000000" x1="439.161" y1="209.75" x2="439.639" y2="232.422"/>
    <polyline style="fill: none; fill-opacity:0; stroke-width: 2; stroke: #000000" points="434.476,224.765 439.686,234.658 444.474,224.554 "/>
  </g>
  <g>
    <line style="fill: none; fill-opacity:0; stroke-width: 2; stroke: #000000" x1="487.614" y1="270.027" x2="545.162" y2="270.047"/>
    <polyline style="fill: none; fill-opacity:0; stroke-width: 2; stroke: #000000" points="537.396,275.044 547.398,270.048 537.4,265.044 "/>
  </g>
  <text font-size="12.8" style="fill: #000000;text-anchor:start;font-family:sans-serif;font-style:normal;font-weight:normal" x="497.574" y="260.992">
    <tspan x="497.574" y="260.992">yes</tspan>
  </text>
  <g>
    <polyline style="fill: none; fill-opacity:0; stroke-width: 2; stroke: #000000" points="463.487,445.101 637.499,445.101 637.499,300.41 "/>
    <polyline style="fill: none; fill-opacity:0; stroke-width: 2; stroke: #000000" points="471.251,440.101 461.251,445.101 471.251,450.101 "/>
  </g>
  <g>
    <line style="fill: none; fill-opacity:0; stroke-width: 2; stroke: #000000" x1="440.058" y1="388.562" x2="440.016" y2="422.577"/>
    <polyline style="fill: none; fill-opacity:0; stroke-width: 2; stroke: #000000" points="435.025,414.807 440.013,424.813 445.025,414.819 "/>
  </g>
  <g>
    <line style="fill: none; fill-opacity:0; stroke-width: 2; stroke: #000000" x1="439.951" y1="463.474" x2="439.878" y2="499.575"/>
    <polyline style="fill: none; fill-opacity:0; stroke-width: 2; stroke: #000000" points="434.893,491.801 439.873,501.811 444.893,491.821 "/>
  </g>
</svg>
